<svg xmlns="http://www.w3.org/2000/svg" viewBox="0 0 1000 1000">
<path d="M289.0 244.5L289.0 249.5L300.0 249.5L301.0 250.5L306.0 251.5L309.0 253.5L318.5 264.0L318.5 266.0L320.5 270.0L320.5 274.0L321.5 275.0L321.5 523.0L319.0 523.5L304.0 514.5L290.5 501.0L285.5 494.0L276.5 476.0L276.5 474.0L272.5 464.0L271.5 457.0L270.5 456.0L269.5 446.0L268.5 445.0L268.0 441.5L263.5 443.0L263.5 459.0L264.5 460.0L265.5 474.0L266.5 475.0L267.5 482.0L268.5 483.0L269.5 488.0L272.5 493.0L272.5 495.0L281.5 510.0L295.0 524.5L303.0 530.5L317.0 538.5L319.0 538.5L324.0 541.5L326.0 541.5L333.0 544.5L336.0 544.5L337.0 545.5L340.0 545.5L345.0 547.5L350.0 547.5L351.0 548.5L357.0 548.5L358.0 549.5L369.0 549.5L370.0 550.5L389.0 550.5L390.0 549.5L402.0 549.5L403.0 548.5L415.0 547.5L416.0 546.5L420.0 546.5L421.0 545.5L428.0 544.5L429.0 543.5L437.0 541.5L440.0 539.5L442.0 539.5L461.0 529.5L468.0 524.5L474.0 518.5L475.0 518.5L484.5 508.0L489.5 501.0L495.5 489.0L500.0 472.5L512.0 483.5L517.0 486.5L526.0 494.5L531.0 497.5L540.0 505.5L545.0 508.5L559.0 520.5L564.0 523.5L568.0 527.5L588.0 542.5L602.5 557.0L613.5 574.0L613.5 576.0L618.5 587.0L618.5 590.0L620.5 595.0L620.5 599.0L621.5 600.0L621.5 614.0L620.5 615.0L620.5 621.0L619.5 622.0L619.5 625.0L618.5 626.0L618.5 629.0L617.5 630.0L617.5 633.0L615.5 636.0L615.5 638.0L610.5 648.0L605.5 655.0L592.0 667.5L576.0 676.5L574.0 676.5L567.0 679.5L559.0 680.5L558.0 681.5L553.0 681.5L552.0 682.5L529.0 682.5L528.0 681.5L523.0 681.5L522.0 680.5L515.0 679.5L512.0 677.5L510.0 677.5L503.0 674.5L488.0 664.5L476.5 653.0L468.5 640.0L468.5 638.0L466.5 635.0L466.5 633.0L464.5 629.0L464.5 626.0L463.5 625.0L463.5 620.0L462.5 619.0L462.5 596.0L463.5 595.0L464.5 585.0L465.5 584.0L466.5 578.0L469.5 572.0L469.5 570.0L475.5 558.0L483.5 547.0L483.5 545.0L480.0 543.5L470.5 554.0L465.5 561.0L463.5 566.0L461.5 568.0L455.5 583.0L455.5 586.0L454.5 587.0L453.5 594.0L452.5 595.0L452.5 599.0L451.5 600.0L451.5 621.0L452.5 622.0L452.5 627.0L453.5 628.0L453.5 631.0L454.5 632.0L454.5 635.0L455.5 636.0L457.5 644.0L463.5 656.0L470.5 666.0L481.0 676.5L491.0 683.5L507.0 691.5L509.0 691.5L516.0 694.5L519.0 694.5L520.0 695.5L529.0 696.5L530.0 697.5L538.0 697.5L539.0 698.5L560.0 698.5L561.0 697.5L575.0 696.5L576.0 695.5L583.0 694.5L584.0 693.5L590.0 692.5L593.0 690.5L595.0 690.5L613.0 680.5L617.0 676.5L618.0 676.5L634.5 659.0L643.5 644.0L643.5 642.0L645.5 639.0L645.5 637.0L648.5 630.0L649.5 622.0L650.5 621.0L650.5 610.0L651.5 609.0L651.5 606.0L650.5 605.0L650.5 593.0L649.5 592.0L648.5 582.0L647.5 581.0L646.5 575.0L643.5 569.0L643.5 567.0L637.5 555.0L629.5 543.0L610.0 522.5L609.0 522.5L589.0 505.5L584.0 502.5L565.0 486.5L560.0 483.5L546.0 471.5L526.0 456.5L516.5 447.0L510.5 437.0L509.5 431.0L508.5 430.0L508.5 426.0L507.5 425.0L507.5 414.0L508.5 413.0L508.5 407.0L509.5 406.0L509.5 403.0L511.5 400.0L511.5 398.0L516.5 389.0L527.0 378.5L533.0 374.5L543.0 370.5L546.0 370.5L547.0 369.5L568.0 369.5L569.0 370.5L577.0 371.5L580.0 373.5L582.0 373.5L586.0 375.5L592.0 379.5L599.5 387.0L604.5 396.0L604.5 398.0L606.5 402.0L607.5 412.0L612.0 412.5L612.5 402.0L611.5 401.0L611.5 361.0L610.0 359.5L590.0 359.5L589.0 358.5L577.0 357.5L576.0 356.5L567.0 356.5L566.0 355.5L550.0 355.5L549.0 356.5L542.0 356.5L541.0 357.5L537.0 357.5L533.0 359.5L530.0 359.5L514.0 367.5L500.5 380.0L490.5 395.0L490.5 397.0L487.5 402.0L487.5 405.0L486.0 407.5L470.0 390.5L460.0 383.5L443.0 375.5L441.0 375.5L437.0 373.5L434.0 373.5L433.0 372.5L430.0 372.5L429.0 371.5L426.0 371.5L425.0 370.5L420.0 370.5L416.5 369.0L422.0 366.5L429.0 361.5L435.5 355.0L440.5 348.0L444.5 340.0L444.5 338.0L447.5 331.0L448.5 319.0L449.5 318.0L449.5 307.0L448.5 306.0L448.5 299.0L447.5 298.0L446.5 291.0L444.5 288.0L444.5 286.0L442.5 282.0L438.5 276.0L429.0 265.5L418.0 257.5L406.0 251.5L404.0 251.5L397.0 248.5L390.0 247.5L389.0 246.5L385.0 246.5L384.0 245.5L378.0 245.5L377.0 244.5L289.0 244.5ZM350.0 258.5L349.5 531.0L351.0 532.5L359.0 532.5L360.0 533.5L381.0 533.5L382.0 534.5L383.0 533.5L398.0 533.5L399.0 532.5L409.0 531.5L410.0 530.5L413.0 530.5L414.0 529.5L422.0 527.5L437.0 519.5L452.5 505.0L457.5 498.0L463.5 486.0L463.5 484.0L465.5 480.0L465.5 477.0L466.5 476.0L466.5 472.0L467.5 471.0L467.5 465.0L468.5 464.0L468.5 446.0L467.5 445.0L467.5 439.0L466.5 438.0L465.5 431.0L462.5 425.0L462.5 423.0L453.5 408.0L445.0 399.5L433.0 391.5L422.0 386.5L420.0 386.5L417.0 384.5L407.0 382.5L406.0 381.5L403.0 381.5L402.0 380.5L391.0 379.5L390.0 378.5L383.0 378.5L382.0 377.5L363.5 377.0L364.0 373.5L379.0 371.5L393.0 365.5L406.5 353.0L412.5 342.0L412.5 340.0L414.5 336.0L415.5 325.0L416.5 324.0L416.5 306.0L415.5 305.0L414.5 295.0L408.5 281.0L398.0 269.5L387.0 263.5L385.0 263.5L378.0 260.5L366.0 259.5L365.0 258.5L350.0 258.5Z" fill="#000000" fill-rule="evenodd"/>
</svg>