<svg xmlns="http://www.w3.org/2000/svg" width="777" height="386" viewBox="0 0 777 386" fill="none">
<rect x="28" y="133" width="353" height="134" fill="#CC7870"></rect>
<path d="M0.0 -0.5L0.0 385.5L776.5 385.0L776.0 -0.5L0.0 -0.5ZM343.0 66.5L342.0 67.5L322.0 67.5L321.0 68.5L312.0 68.5L311.0 69.5L303.0 69.5L302.0 70.5L295.0 70.5L294.0 71.5L289.0 71.5L288.0 72.5L282.0 72.5L281.0 73.5L277.0 73.5L276.0 74.5L273.0 74.5L272.0 75.5L262.0 77.5L246.0 85.5L238.5 92.0L234.5 100.0L234.5 103.0L233.5 104.0L235.5 116.0L238.5 122.0L242.5 128.0L246.5 132.0L246.0 132.5L28.0 132.5L27.5 267.0L265.0 267.5L265.5 268.0L263.0 269.5L252.0 272.5L249.0 274.5L246.0 274.5L239.0 277.5L236.0 277.5L225.0 281.5L217.0 282.5L216.0 283.5L213.0 283.5L212.0 284.5L209.0 284.5L204.0 286.5L200.0 286.5L195.0 288.5L191.0 288.5L190.0 289.5L186.0 289.5L185.0 290.5L181.0 290.5L180.0 291.5L176.0 291.5L175.0 292.5L170.0 292.5L169.0 293.5L165.0 293.5L164.0 294.5L160.0 294.5L159.0 295.5L154.0 295.5L153.0 296.5L149.0 296.5L148.0 297.5L143.0 297.5L142.0 298.5L138.0 298.5L137.0 299.5L132.0 299.5L131.0 300.5L126.0 300.5L125.0 301.5L121.0 301.5L120.0 302.5L115.0 302.5L112.5 304.0L112.5 312.0L114.0 315.5L116.0 314.5L120.0 314.5L121.0 313.5L126.0 313.5L127.0 312.5L136.0 311.5L137.0 310.5L141.0 310.5L142.0 309.5L146.0 309.5L147.0 308.5L151.0 308.5L152.0 307.5L156.0 307.5L157.0 306.5L161.0 306.5L166.0 304.5L170.0 304.5L175.0 302.5L179.0 302.5L184.0 300.5L188.0 300.5L189.0 299.5L192.0 299.5L193.0 298.5L196.0 298.5L197.0 297.5L212.0 294.5L216.0 292.5L223.0 291.5L227.0 289.5L230.0 289.5L241.0 285.5L244.0 285.5L251.0 282.5L254.0 282.5L255.0 281.5L281.0 273.5L284.0 271.5L292.0 269.5L295.0 267.5L381.0 267.5L382.0 247.5L387.0 249.5L391.0 249.5L392.0 250.5L408.0 250.5L409.0 249.5L413.0 249.5L414.0 248.5L419.0 247.5L429.0 240.5L430.5 241.0L430.5 244.0L433.0 248.5L449.5 249.0L433.5 269.0L436.0 270.5L444.0 272.5L460.5 252.0L460.0 250.5L455.5 249.0L462.5 248.0L459.5 242.0L459.5 238.0L458.5 237.0L458.5 191.0L457.5 190.0L456.5 185.0L454.5 182.0L457.0 181.5L458.0 182.5L460.0 182.5L461.0 183.5L463.0 183.5L464.0 184.5L466.0 184.5L486.5 192.0L485.5 194.0L485.5 198.0L484.5 199.0L484.5 218.0L485.5 219.0L485.5 222.0L486.5 223.0L487.5 228.0L492.5 237.0L503.0 246.5L514.0 250.5L529.0 250.5L530.0 249.5L536.0 248.5L542.0 245.5L547.0 240.5L548.0 240.5L550.0 237.5L551.0 248.5L567.5 249.0L573.5 258.0L580.5 272.0L580.5 274.0L582.5 277.0L582.5 279.0L584.5 283.0L584.5 286.0L585.5 287.0L585.5 290.0L586.5 291.0L586.5 294.0L588.5 299.0L588.5 304.0L589.5 305.0L590.5 319.0L591.5 320.0L591.5 329.0L592.5 330.0L592.5 337.0L594.0 338.5L595.0 337.5L598.0 337.5L599.0 336.5L602.0 336.5L603.0 335.5L608.0 334.5L608.5 304.0L607.5 303.0L607.5 297.0L606.5 296.0L606.5 292.0L605.5 291.0L603.5 280.0L602.5 279.0L601.5 274.0L599.5 271.0L599.5 269.0L592.5 255.0L582.5 241.0L582.5 140.0L547.5 140.0L547.0 176.5L544.0 173.5L536.0 169.5L527.0 168.5L526.0 167.5L518.0 167.5L517.0 168.5L512.0 168.5L502.0 172.5L492.0 181.5L491.0 181.5L469.0 173.5L466.0 173.5L465.0 172.5L459.0 171.5L455.0 169.5L452.0 169.5L448.0 167.5L441.0 166.5L430.0 162.5L423.0 161.5L419.0 159.5L416.0 159.5L412.0 157.5L409.0 157.5L399.0 153.5L396.0 153.5L395.0 152.5L384.0 149.5L381.5 148.0L381.0 132.5L344.0 132.5L340.0 129.5L333.5 122.0L333.5 116.0L334.5 114.0L339.0 109.5L349.0 103.5L351.0 103.5L356.0 100.5L361.0 99.5L364.0 97.5L382.0 92.5L382.5 89.0L380.5 86.0L380.5 84.0L379.0 82.5L352.0 90.5L349.0 92.5L342.0 94.5L326.0 103.5L319.5 110.0L316.5 117.0L317.5 123.0L320.5 128.0L324.5 132.0L324.0 132.5L297.0 132.5L287.0 114.5L282.0 115.5L279.5 117.0L279.5 119.0L282.5 123.0L285.5 130.0L287.5 132.0L287.0 132.5L267.0 132.5L257.5 122.0L251.5 110.0L251.5 102.0L253.5 98.0L260.0 91.5L263.0 90.5L265.0 88.5L267.0 88.5L273.0 85.5L276.0 85.5L280.0 83.5L288.0 82.5L289.0 81.5L301.0 80.5L302.0 79.5L322.0 78.5L323.0 77.5L337.0 77.5L338.0 76.5L363.0 76.5L364.0 75.5L377.0 75.5L377.5 68.0L376.0 66.5L343.0 66.5ZM312.0 87.5L309.0 89.5L307.0 89.5L304.0 91.5L302.0 91.5L299.0 93.5L297.0 93.5L294.0 95.5L290.0 96.5L289.5 99.0L293.0 102.5L294.0 102.5L317.0 93.5L316.5 91.0L313.0 87.5L312.0 87.5ZM266.0 151.5L248.5 160.0L248.5 173.0L247.0 174.5L237.5 175.0L237.5 194.0L248.5 195.0L248.5 232.0L249.5 233.0L249.5 236.0L251.5 241.0L257.0 246.5L261.0 248.5L264.0 248.5L265.0 249.5L288.0 249.5L289.0 248.5L294.0 248.5L295.5 247.0L295.5 240.0L294.5 239.0L294.5 231.0L293.5 229.0L292.0 228.5L287.0 230.5L283.0 230.5L278.5 227.0L278.5 195.0L294.5 194.0L294.5 175.0L279.0 174.5L278.5 159.0L270.0 152.5L266.0 151.5ZM382.0 159.5L382.0 175.5L384.0 173.5L394.0 169.5L407.5 168.0L404.0 166.5L401.0 166.5L382.0 159.5ZM643.0 167.5L642.0 168.5L631.0 168.5L630.0 169.5L626.0 169.5L615.0 173.5L606.5 181.0L602.5 189.0L602.5 192.0L605.0 193.5L615.0 193.5L616.0 194.5L634.0 195.5L635.5 193.0L642.0 187.5L644.0 187.5L645.0 186.5L657.0 186.5L661.5 189.0L663.5 195.0L662.0 196.5L660.0 196.5L656.0 198.5L653.0 198.5L648.0 200.5L644.0 200.5L643.0 201.5L633.0 202.5L632.0 203.5L627.0 203.5L626.0 204.5L619.0 205.5L609.0 209.5L602.5 216.0L599.5 223.0L599.5 233.0L602.5 239.0L609.0 245.5L615.0 248.5L622.0 249.5L623.0 250.5L641.0 250.5L642.0 249.5L650.0 248.5L659.0 244.5L665.0 239.5L665.5 243.0L669.0 248.5L700.0 248.5L700.5 247.0L698.5 244.0L697.5 238.0L696.5 237.0L696.5 192.0L695.5 191.0L695.5 188.0L693.5 185.0L693.5 183.0L691.5 180.0L686.0 174.5L678.0 170.5L670.0 169.5L669.0 168.5L643.0 167.5ZM93.0 168.5L92.0 169.5L84.0 170.5L74.0 175.5L64.5 185.0L63.5 188.0L61.5 190.0L61.5 192.0L58.5 199.0L58.5 207.0L57.5 208.0L57.5 210.0L58.5 211.0L58.5 219.0L59.5 220.0L60.5 226.0L65.5 235.0L74.0 243.5L79.0 246.5L81.0 246.5L85.0 248.5L88.0 248.5L89.0 249.5L100.0 249.5L102.0 250.5L103.0 249.5L115.0 249.5L116.0 248.5L120.0 248.5L126.0 245.5L128.0 245.5L137.5 238.0L137.5 237.0L141.5 233.0L143.5 229.0L143.0 228.5L139.0 228.5L138.0 227.5L129.0 227.5L128.0 226.5L118.0 226.5L116.0 225.5L111.0 230.5L107.0 232.5L98.0 232.5L97.0 231.5L95.0 231.5L89.5 226.0L87.5 221.0L87.5 217.0L145.0 216.5L145.5 204.0L144.5 203.0L144.5 198.0L143.5 197.0L143.5 194.0L141.5 191.0L141.5 189.0L139.5 187.0L138.5 184.0L130.0 175.5L125.0 172.5L123.0 172.5L120.0 170.5L117.0 170.5L116.0 169.5L111.0 169.5L110.0 168.5L93.0 168.5ZM180.0 168.5L179.0 169.5L174.0 169.5L173.0 170.5L167.0 171.5L162.0 174.5L156.5 180.0L153.5 185.0L153.5 188.0L152.5 189.0L152.5 196.0L153.5 197.0L153.5 200.0L155.5 204.0L163.0 211.5L167.0 213.5L177.0 215.5L178.0 216.5L192.0 218.5L193.0 219.5L196.0 219.5L201.0 221.5L203.5 224.0L203.5 229.0L198.0 233.5L190.0 234.5L189.0 233.5L184.0 232.5L179.5 228.0L178.0 224.5L171.0 224.5L170.0 225.5L150.0 226.5L149.5 228.0L150.5 229.0L150.5 231.0L153.5 237.0L161.0 244.5L171.0 248.5L175.0 248.5L176.0 249.5L188.0 249.5L189.0 250.5L191.0 250.5L192.0 249.5L204.0 249.5L205.0 248.5L208.0 248.5L209.0 247.5L214.0 246.5L219.0 243.5L226.5 236.0L228.5 232.0L228.5 230.0L229.5 229.0L229.5 217.0L226.5 211.0L220.0 204.5L214.0 201.5L212.0 201.5L208.0 199.5L204.0 199.5L203.0 198.5L198.0 198.5L197.0 197.5L191.0 197.5L190.0 196.5L185.0 196.5L184.0 195.5L182.0 195.5L178.5 192.0L178.5 188.0L182.0 184.5L185.0 184.5L186.0 183.5L190.0 183.5L191.0 184.5L196.0 185.5L198.5 188.0L200.0 191.5L216.0 190.5L217.0 189.5L226.0 189.5L226.5 187.0L223.5 181.0L216.0 173.5L210.0 170.5L208.0 170.5L207.0 169.5L201.0 169.5L200.0 168.5L180.0 168.5ZM350.0 168.5L343.0 171.5L339.5 175.0L335.0 182.5L334.0 170.5L316.5 171.0L329.0 182.5L330.0 182.5L342.0 195.5L347.0 191.5L354.0 191.5L358.0 193.5L359.5 192.0L359.5 190.0L362.5 185.0L364.5 178.0L367.5 173.0L364.0 170.5L362.0 170.5L358.0 168.5L350.0 168.5ZM308.0 181.5L308.0 247.5L319.0 239.5L323.5 235.0L329.5 226.0L330.5 219.0L331.5 218.0L330.5 211.0L326.5 202.0L321.5 195.0L308.0 181.5ZM100.0 185.5L95.0 187.5L89.5 193.0L87.5 198.0L87.5 202.0L116.0 202.5L116.5 199.0L115.5 198.0L115.5 195.0L112.5 190.0L108.0 186.5L100.0 185.5ZM412.0 186.5L407.0 188.5L403.5 192.0L402.0 195.5L395.0 195.5L394.0 194.5L385.0 194.5L384.0 193.5L382.0 193.5L380.5 197.0L380.5 208.0L382.0 208.5L385.0 206.5L387.0 206.5L391.0 204.5L394.0 204.5L395.0 203.5L399.0 203.5L400.0 202.5L414.0 200.5L415.0 199.5L418.0 199.5L419.0 198.5L427.0 196.5L427.5 191.0L425.0 187.5L423.0 187.5L422.0 186.5L412.0 186.5ZM528.0 191.5L526.0 192.5L523.5 195.0L524.0 195.5L536.0 201.5L546.0 208.5L547.5 208.0L547.5 202.0L543.0 194.5L538.0 191.5L528.0 191.5ZM520.0 208.5L519.5 217.0L521.5 222.0L525.0 225.5L529.0 227.5L538.0 227.5L542.5 224.0L538.0 219.5L523.0 209.5L520.0 208.5ZM427.0 211.5L426.0 212.5L424.0 212.5L420.0 214.5L417.0 214.5L404.0 219.5L401.5 223.0L401.5 229.0L405.0 232.5L407.0 232.5L408.0 233.5L413.0 233.5L414.0 232.5L420.0 231.5L424.0 228.5L426.5 225.0L426.5 223.0L427.5 222.0L427.5 217.0L428.5 216.0L428.5 212.0L427.0 211.5ZM662.0 211.5L658.0 213.5L647.0 215.5L637.0 219.5L633.5 224.0L634.5 229.0L638.0 232.5L640.0 232.5L641.0 233.5L647.0 233.5L648.0 232.5L651.0 232.5L656.0 230.5L662.5 223.0L663.5 212.0L662.0 211.5ZM729.0 217.5L721.0 220.5L716.5 225.0L714.5 229.0L714.5 236.0L716.5 240.0L723.0 245.5L730.0 246.5L731.0 247.5L738.0 246.5L744.0 243.5L747.5 240.0L749.5 236.0L749.5 229.0L747.5 225.0L741.0 219.5L736.0 218.5L735.0 217.5L729.0 217.5ZM336.0 243.5L330.5 248.0L336.0 248.5L336.0 243.5ZM414.0 277.5L402.0 285.5L399.0 286.5L388.0 294.5L385.0 295.5L382.5 298.0L387.0 302.5L391.0 304.5L403.0 296.5L406.0 295.5L417.0 287.5L420.0 286.5L421.5 284.0L414.0 277.5ZM354.0 314.5L319.5 331.0L326.0 338.5L328.0 338.5L343.0 330.5L345.0 330.5L361.5 322.0L361.5 321.0L355.0 314.5L354.0 314.5Z" fill="#FFFFFF" fill-rule="evenodd"></path>
<path d="M330.0 67.5L329.0 68.5L317.0 68.5L316.0 69.5L307.0 69.5L306.0 70.5L299.0 70.5L298.0 71.5L285.0 72.5L284.0 73.5L279.0 73.5L274.0 75.5L270.0 75.5L269.0 76.5L258.0 79.5L248.0 84.5L244.0 87.5L238.5 93.0L234.5 102.0L234.5 111.0L235.5 112.0L236.5 117.0L239.5 123.0L245.5 131.0L258.0 143.5L282.0 161.5L290.0 166.5L310.0 183.5L311.0 183.5L320.5 193.0L326.5 201.0L330.5 209.0L330.5 212.0L331.5 213.0L331.5 221.0L330.5 222.0L330.5 225.0L326.5 232.0L315.0 243.5L303.0 251.5L279.0 263.5L272.0 265.5L267.0 268.5L262.0 269.5L259.0 271.5L257.0 271.5L244.0 276.5L234.0 278.5L227.0 281.5L224.0 281.5L219.0 283.5L215.0 283.5L214.0 284.5L211.0 284.5L210.0 285.5L207.0 285.5L202.0 287.5L198.0 287.5L197.0 288.5L188.0 289.5L183.0 291.5L178.0 291.5L177.0 292.5L173.0 292.5L172.0 293.5L168.0 293.5L167.0 294.5L162.0 294.5L161.0 295.5L157.0 295.5L156.0 296.5L151.0 296.5L150.0 297.5L146.0 297.5L145.0 298.5L140.0 298.5L139.0 299.5L135.0 299.5L134.0 300.5L129.0 300.5L128.0 301.5L114.0 303.5L114.0 314.5L118.0 314.5L119.0 313.5L123.0 313.5L124.0 312.5L128.0 312.5L129.0 311.5L134.0 311.5L135.0 310.5L139.0 310.5L140.0 309.5L144.0 309.5L145.0 308.5L159.0 306.5L164.0 304.5L168.0 304.5L173.0 302.5L177.0 302.5L178.0 301.5L181.0 301.5L186.0 299.5L190.0 299.5L191.0 298.5L194.0 298.5L195.0 297.5L210.0 294.5L214.0 292.5L225.0 290.5L226.0 289.5L232.0 288.5L236.0 286.5L239.0 286.5L246.0 283.5L249.0 283.5L250.0 282.5L252.0 282.5L253.0 281.5L288.0 270.5L291.0 268.5L299.0 266.5L318.0 256.5L330.0 248.5L340.5 239.0L345.5 232.0L349.5 222.0L349.5 213.0L348.5 212.0L348.5 209.0L342.5 197.0L326.0 179.5L325.0 179.5L310.0 166.5L281.0 145.5L267.0 132.5L266.0 132.5L257.5 123.0L252.5 114.0L251.5 108.0L250.5 107.0L251.5 101.0L253.5 97.0L259.0 91.5L262.0 90.5L264.0 88.5L266.0 88.5L269.0 86.5L271.0 86.5L278.0 83.5L286.0 82.5L287.0 81.5L291.0 81.5L292.0 80.5L305.0 79.5L306.0 78.5L314.0 78.5L315.0 77.5L345.0 76.5L346.0 75.5L376.0 75.5L377.5 74.0L376.0 67.5L330.0 67.5ZM377.0 83.5L376.0 84.5L373.0 84.5L369.0 86.5L366.0 86.5L365.0 87.5L359.0 88.5L356.0 90.5L348.0 92.5L331.0 100.5L322.5 107.0L322.5 108.0L318.5 112.0L318.5 114.0L317.5 115.0L317.5 122.0L319.5 126.0L328.0 134.5L337.0 140.5L355.0 149.5L357.0 149.5L370.0 155.5L372.0 155.5L373.0 156.5L378.0 157.5L381.0 159.5L384.0 159.5L385.0 160.5L409.5 168.0L392.0 170.5L382.0 175.5L375.5 183.0L372.5 191.0L373.0 192.5L389.0 193.5L390.0 194.5L399.0 194.5L401.0 195.5L406.0 188.5L410.0 186.5L414.0 186.5L415.0 185.5L424.0 186.5L428.5 192.0L428.5 196.0L426.0 197.5L424.0 197.5L420.0 199.5L417.0 199.5L416.0 200.5L413.0 200.5L412.0 201.5L408.0 201.5L407.0 202.5L393.0 204.5L389.0 206.5L386.0 206.5L378.0 210.5L372.5 217.0L370.5 222.0L370.5 233.0L374.5 241.0L378.0 244.5L383.0 247.5L385.0 247.5L389.0 249.5L403.0 250.5L404.0 249.5L410.0 249.5L411.0 248.5L417.0 247.5L430.0 239.5L431.5 245.0L434.0 248.5L450.5 249.0L434.5 269.0L441.0 271.5L444.0 271.5L460.5 252.0L460.0 250.5L457.0 250.5L453.5 249.0L461.5 248.0L458.5 240.0L458.5 195.0L457.5 194.0L457.5 189.0L456.5 188.0L456.5 186.0L453.5 181.0L455.0 180.5L456.0 181.5L459.0 181.5L460.0 182.5L477.0 187.5L480.0 189.5L482.0 189.5L486.5 192.0L485.5 202.0L484.5 203.0L484.5 214.0L485.5 215.0L486.5 224.0L492.5 236.0L495.5 240.0L502.0 245.5L512.0 249.5L525.0 250.5L526.0 249.5L535.0 248.5L541.0 245.5L550.0 237.5L551.0 248.5L567.0 248.5L569.5 251.0L573.5 257.0L581.5 273.0L581.5 275.0L585.5 285.0L585.5 288.0L586.5 289.0L586.5 292.0L588.5 297.0L588.5 301.0L589.5 302.0L589.5 307.0L590.5 308.0L590.5 315.0L591.5 316.0L591.5 324.0L592.5 325.0L592.5 334.0L593.5 335.0L593.5 337.0L596.0 337.5L597.0 336.5L607.0 334.5L608.5 331.0L608.5 309.0L607.5 308.0L606.5 294.0L605.5 293.0L602.5 278.0L599.5 272.0L599.5 270.0L591.5 254.0L582.5 242.0L582.5 141.0L548.5 141.0L548.0 177.5L543.0 173.5L534.0 169.5L531.0 169.5L530.0 168.5L515.0 168.5L514.0 169.5L511.0 169.5L510.0 170.5L505.0 171.5L496.0 177.5L493.0 181.5L489.0 181.5L486.0 179.5L484.0 179.5L474.0 175.5L471.0 175.5L470.0 174.5L464.0 173.5L457.0 170.5L450.0 169.5L439.0 165.5L436.0 165.5L435.0 164.5L432.0 164.5L421.0 160.5L418.0 160.5L414.0 158.5L411.0 158.5L404.0 155.5L401.0 155.5L400.0 154.5L377.0 147.5L374.0 145.5L369.0 144.5L359.0 139.5L357.0 139.5L347.0 134.5L338.0 128.5L334.5 125.0L332.5 121.0L332.5 117.0L334.5 113.0L338.0 109.5L350.0 102.5L352.0 102.5L357.0 99.5L359.0 99.5L375.0 93.5L381.0 92.5L382.5 91.0L381.5 90.0L380.5 85.0L379.0 83.5L377.0 83.5ZM311.0 88.5L303.0 92.5L293.0 95.5L289.5 98.0L293.0 102.5L304.0 97.5L306.0 97.5L309.0 95.5L314.0 94.5L316.0 93.5L316.5 92.0L314.0 88.5L311.0 88.5ZM284.0 115.5L283.0 116.5L280.0 116.5L279.5 118.0L282.5 122.0L289.5 136.0L297.0 134.5L297.5 133.0L295.5 131.0L288.5 117.0L287.0 115.5L284.0 115.5ZM308.0 141.5L304.5 145.0L305.0 146.5L317.0 152.5L319.0 152.5L326.0 156.5L327.0 156.5L330.5 153.0L329.0 150.5L315.0 143.5L308.0 141.5ZM347.0 157.5L343.5 163.0L345.0 164.5L347.0 164.5L357.0 168.5L360.0 168.5L372.0 173.5L375.5 169.0L375.0 166.5L373.0 166.5L372.0 165.5L370.0 165.5L369.0 164.5L367.0 164.5L366.0 163.5L364.0 163.5L363.0 162.5L347.0 157.5ZM636.0 168.5L635.0 169.5L628.0 169.5L627.0 170.5L624.0 170.5L623.0 171.5L618.0 172.5L613.0 175.5L606.5 182.0L602.5 192.0L610.0 192.5L611.0 193.5L621.0 193.5L622.0 194.5L631.0 194.5L632.0 195.5L634.0 195.5L635.5 192.0L639.0 188.5L643.0 186.5L654.0 185.5L655.0 186.5L659.0 186.5L662.5 190.0L663.5 192.0L663.5 196.0L658.0 198.5L655.0 198.5L654.0 199.5L651.0 199.5L646.0 201.5L641.0 201.5L640.0 202.5L636.0 202.5L635.0 203.5L630.0 203.5L629.0 204.5L621.0 205.5L620.0 206.5L612.0 208.5L607.0 211.5L602.5 217.0L600.5 221.0L600.5 225.0L599.5 226.0L600.5 234.0L604.5 241.0L607.0 243.5L614.0 247.5L620.0 248.5L621.0 249.5L628.0 249.5L629.0 250.5L635.0 250.5L636.0 249.5L644.0 249.5L645.0 248.5L648.0 248.5L658.0 244.5L664.0 239.5L665.5 240.0L669.0 248.5L700.0 248.5L700.5 248.0L696.5 240.0L696.5 195.0L695.5 194.0L694.5 187.0L689.5 178.0L685.0 174.5L679.0 171.5L673.0 170.5L672.0 169.5L665.0 169.5L664.0 168.5L636.0 168.5ZM529.0 190.5L525.0 192.5L522.5 195.0L524.0 196.5L528.0 197.5L530.0 199.5L535.0 201.5L547.0 209.5L548.5 209.0L548.5 204.0L547.5 203.0L546.5 198.0L541.0 192.5L536.0 190.5L529.0 190.5ZM519.0 207.5L518.5 215.0L519.5 216.0L519.5 219.0L524.0 225.5L530.0 228.5L536.0 228.5L541.0 226.5L543.5 224.0L536.0 217.5L527.0 211.5L524.0 210.5L522.0 208.5L519.0 207.5ZM426.0 211.5L425.0 212.5L415.0 214.5L405.0 218.5L400.5 224.0L401.5 230.0L406.0 233.5L416.0 233.5L421.0 231.5L426.5 226.0L428.5 221.0L428.5 212.0L426.0 211.5ZM661.0 211.5L660.0 212.5L645.0 215.5L636.0 219.5L633.5 223.0L633.5 229.0L639.0 233.5L650.0 233.5L657.0 230.5L661.5 226.0L663.5 221.0L663.5 212.0L661.0 211.5ZM727.0 218.5L719.0 222.5L715.5 227.0L715.5 229.0L714.5 230.0L714.5 235.0L716.5 239.0L722.0 244.5L727.0 246.5L737.0 246.5L742.0 244.5L747.5 239.0L749.5 234.0L749.5 231.0L747.5 226.0L740.0 219.5L738.0 219.5L737.0 218.5L727.0 218.5ZM413.0 278.5L382.5 298.0L391.0 304.5L399.0 298.5L402.0 297.5L410.0 291.5L413.0 290.5L420.5 285.0L420.5 284.0L417.0 280.5L413.0 278.5ZM355.0 314.5L331.0 326.5L329.0 326.5L321.0 330.5L320.5 332.0L327.0 338.5L342.0 330.5L344.0 330.5L360.0 322.5L360.5 321.0L355.0 314.5Z" fill="#000000" fill-rule="evenodd"></path>
</svg>